<svg id="cart-icon" xmlns="http://www.w3.org/2000/svg" width="19.222" height="19.222" viewBox="0 0 19.222 19.222">
  <path id="Path_1" data-name="Path 1" d="M.641,1.281H2.7l2.265,9.627a1.917,1.917,0,0,0,.165,3.828H16.018a.641.641,0,0,0,0-1.281H5.126a.641.641,0,0,1,0-1.281H15.942a1.916,1.916,0,0,0,1.871-1.482l1.358-5.766A1.922,1.922,0,0,0,17.3,2.563H4.314L3.828.494A.641.641,0,0,0,3.2,0H.641a.641.641,0,1,0,0,1.281ZM17.3,3.844a.651.651,0,0,1,.624.787L16.565,10.4a.637.637,0,0,1-.623.494H6.274L4.613,3.844Z" fill="#fff"/>
  <path id="Path_2" data-name="Path 2" d="M23.433,31.521A1.922,1.922,0,1,0,24,30.162a1.922,1.922,0,0,0-.563,1.359Zm2.563,0a.641.641,0,1,1-.188-.453A.641.641,0,0,1,26,31.521Z" transform="translate(-11.259 -14.222)" fill="#fff"/>
  <path id="Path_3" data-name="Path 3" d="M9.866,31.521a1.922,1.922,0,1,0,.563-1.359,1.922,1.922,0,0,0-.563,1.359Zm2.563,0a.641.641,0,1,1-.188-.453A.641.641,0,0,1,12.429,31.521Z" transform="translate(-4.741 -14.222)" fill="#fff"/>
</svg>
