<svg width="37" height="37" viewBox="0 0 37 37" fill="none" xmlns="http://www.w3.org/2000/svg">
<path d="M1.2333 2.46659H5.18972L9.54942 20.9981C8.59865 21.0759 7.71496 21.5189 7.08374 22.2342C6.45252 22.9495 6.12282 23.8814 6.16383 24.8344C6.20483 25.7875 6.61333 26.6877 7.30365 27.3461C7.99396 28.0045 8.91243 28.37 9.86638 28.3658H30.8324C31.1595 28.3658 31.4732 28.2359 31.7045 28.0046C31.9358 27.7733 32.0657 27.4596 32.0657 27.1325C32.0657 26.8055 31.9358 26.4918 31.7045 26.2605C31.4732 26.0292 31.1595 25.8992 30.8324 25.8992H9.86638C9.53929 25.8992 9.22559 25.7693 8.99431 25.538C8.76302 25.3067 8.63308 24.993 8.63308 24.6659C8.63308 24.3389 8.76302 24.0252 8.99431 23.7939C9.22559 23.5626 9.53929 23.4326 9.86638 23.4326H30.6869C31.5214 23.4348 32.3319 23.1538 32.986 22.6357C33.6402 22.1175 34.0992 21.3928 34.2881 20.58L36.9015 9.48036C37.0293 8.9372 37.0325 8.37217 36.9111 7.82756C36.7896 7.28296 36.5465 6.77289 36.2 6.33552C35.8535 5.89815 35.4126 5.54482 34.9102 5.30198C34.4078 5.05913 33.857 4.93306 33.299 4.93319H8.30379L7.36772 0.950873C7.30403 0.680154 7.15071 0.438907 6.93265 0.266295C6.7146 0.0936838 6.4446 -0.000159303 6.16649 2.03001e-07H1.2333C0.906207 2.03001e-07 0.592512 0.129936 0.361224 0.361225C0.129936 0.592513 0 0.906207 0 1.2333C0 1.56039 0.129936 1.87408 0.361224 2.10537C0.592512 2.33666 0.906207 2.46659 1.2333 2.46659V2.46659ZM33.299 7.39978C33.4838 7.40331 33.6656 7.44769 33.8312 7.52973C33.9969 7.61177 34.1423 7.72944 34.2572 7.87432C34.372 8.01919 34.4533 8.18767 34.4953 8.36768C34.5374 8.54769 34.539 8.73477 34.5003 8.91551L31.8857 20.0152C31.8233 20.2861 31.6707 20.5278 31.4528 20.7006C31.235 20.8734 30.9649 20.967 30.6869 20.9661H12.0764L8.87974 7.39978H33.299Z" fill="black"/>
<path d="M23.4326 33.299C23.4326 34.0308 23.6496 34.7461 24.0562 35.3546C24.4627 35.963 25.0406 36.4372 25.7166 36.7173C26.3927 36.9973 27.1366 37.0706 27.8543 36.9278C28.572 36.7851 29.2313 36.4327 29.7487 35.9152C30.2662 35.3978 30.6185 34.7386 30.7613 34.0208C30.9041 33.3031 30.8308 32.5592 30.5508 31.8831C30.2707 31.2071 29.7965 30.6292 29.1881 30.2227C28.5796 29.8161 27.8643 29.5991 27.1325 29.5991C26.1512 29.5991 25.2102 29.9889 24.5163 30.6828C23.8224 31.3767 23.4326 32.3178 23.4326 33.299V33.299ZM28.3658 33.299C28.3658 33.543 28.2935 33.7814 28.158 33.9842C28.0224 34.187 27.8298 34.3451 27.6045 34.4384C27.3791 34.5318 27.1311 34.5562 26.8919 34.5086C26.6527 34.461 26.4329 34.3436 26.2604 34.1711C26.088 33.9986 25.9705 33.7789 25.9229 33.5396C25.8753 33.3004 25.8997 33.0524 25.9931 32.8271C26.0864 32.6017 26.2445 32.4091 26.4473 32.2736C26.6501 32.1381 26.8886 32.0657 27.1325 32.0657C27.4596 32.0657 27.7733 32.1957 28.0046 32.427C28.2359 32.6582 28.3658 32.9719 28.3658 33.299Z" fill="black"/>
<path d="M9.86621 33.299C9.86621 34.0308 10.0832 34.7461 10.4898 35.3546C10.8963 35.963 11.4741 36.4372 12.1502 36.7173C12.8263 36.9973 13.5702 37.0706 14.2879 36.9278C15.0056 36.7851 15.6649 36.4327 16.1823 35.9152C16.6998 35.3978 17.0521 34.7386 17.1949 34.0208C17.3377 33.3031 17.2644 32.5592 16.9844 31.8831C16.7043 31.2071 16.2301 30.6292 15.6217 30.2227C15.0132 29.8161 14.2979 29.5991 13.5661 29.5991C12.5848 29.5991 11.6437 29.9889 10.9499 30.6828C10.256 31.3767 9.86621 32.3178 9.86621 33.299V33.299ZM14.7994 33.299C14.7994 33.543 14.7271 33.7814 14.5916 33.9842C14.456 34.187 14.2634 34.3451 14.0381 34.4384C13.8127 34.5318 13.5647 34.5562 13.3255 34.5086C13.0863 34.461 12.8665 34.3436 12.694 34.1711C12.5216 33.9986 12.4041 33.7789 12.3565 33.5396C12.3089 33.3004 12.3333 33.0524 12.4267 32.8271C12.52 32.6017 12.6781 32.4091 12.8809 32.2736C13.0837 32.1381 13.3222 32.0657 13.5661 32.0657C13.8932 32.0657 14.2069 32.1957 14.4382 32.427C14.6695 32.6582 14.7994 32.9719 14.7994 33.299Z" fill="black"/>
</svg>
