<svg width="200" height="74" viewBox="0 0 200 74" fill="none" xmlns="http://www.w3.org/2000/svg">
<path d="M6.17207 17.1675H13.4353V14.694C13.4353 10.6511 15.073 6.97698 17.7118 4.31497C20.3506 1.65221 23.9926 0 28.0004 0C32.0081 0 35.6508 1.65221 38.2889 4.31497C40.9284 6.97698 42.5662 10.6511 42.5662 14.694V17.1675H49.8294C50.8766 17.1675 51.7301 18.003 51.7703 19.0496L55.994 71.83C56.0774 72.909 55.279 73.8504 54.211 73.9353C54.1603 73.9398 54.1097 73.9421 54.0598 73.9421C52.5836 73.9436 51.9394 73.9518 51.2847 73.9616C42.9237 74.0751 34.0816 74.1945 27.9996 66.1844C21.8663 74.2419 12.8744 74.0976 4.7674 73.9661C4.04048 73.9541 3.324 73.9428 1.94241 73.9428C0.869914 73.9428 0 73.0652 0 71.9833C0 71.9014 0.00521353 71.8195 0.0148958 71.7391L4.23711 18.9737C4.3168 17.9474 5.16809 17.1682 6.17207 17.1675ZM28.0011 3.91901C25.0659 3.91901 22.3958 5.13168 20.4586 7.08518C18.5214 9.03867 17.3193 11.733 17.3193 14.6933V17.1667H38.6814V14.6933C38.6814 11.7322 37.4786 9.03867 35.5421 7.08518C33.6064 5.13168 30.9363 3.91901 28.0011 3.91901ZM29.8199 29.0192L40.1523 53.3026C40.5717 54.2967 40.1129 55.444 39.1275 55.8662C38.8423 55.9887 38.5451 56.0375 38.2546 56.0195L32.951 56.012L30.1647 62.5043C35.1451 70.2755 43.4309 70.1636 51.2385 70.0576L51.9573 70.0486L48.0389 21.0872H42.5662H13.4345H7.9618L4.04421 70.0501L4.82847 70.0629C12.3799 70.1853 20.8035 70.3213 25.8196 62.5284L23.0408 55.997L17.6329 55.9887C16.5634 55.9887 15.6979 55.1149 15.6979 54.0367C15.6979 53.7354 15.7657 53.4506 15.8864 53.1952L26.2613 29.0109C26.6851 28.0221 27.8224 27.5661 28.8032 27.9936C29.2769 28.2002 29.6277 28.5759 29.8162 29.0207L29.8199 29.0192ZM31.4197 42.6914L28.0272 34.7174L20.5741 52.09L24.2079 52.0952C25.0003 52.0494 25.7727 52.5025 26.1019 53.2816L27.9981 57.7371L29.8795 53.3515C30.161 52.6234 30.8626 52.1072 31.6833 52.1072L35.4296 52.1125L31.4197 42.6914Z" fill="url(#paint0_linear_55_104)"/>
<path d="M86.558 19V30.3398L78.7172 19H75.2544V35.5135H78.7172V24.1974L86.558 35.5135H90.0208V19H86.558Z" fill="#08080A"/>
<path d="M99.3296 24.9297C101.11 24.9297 102.545 26.0165 102.595 27.7411H96.0894C96.3615 25.9456 97.6724 24.9297 99.3296 24.9297ZM105.835 31.4029H102.1C101.655 32.277 100.838 32.9857 99.3543 32.9857C97.6229 32.9857 96.2378 31.899 96.0647 29.9618H106.082C106.156 29.5365 106.181 29.1113 106.181 28.686C106.181 24.788 103.386 22.2129 99.4285 22.2129C95.3721 22.2129 92.5524 24.8352 92.5524 28.9695C92.5524 33.0802 95.4463 35.7261 99.4285 35.7261C102.817 35.7261 105.093 33.8125 105.835 31.4029Z" fill="#08080A"/>
<path d="M111.207 35.5135H114.966L117.464 26.3708L119.963 35.5135H123.698L127.704 22.4255H124.39L121.966 32.3715L119.394 22.4255H115.733L113.111 32.3951L110.687 22.4255H107.175L111.207 35.5135Z" fill="#08080A"/>
<path d="M133.066 35.5371L137.122 35.5135L140.511 23.7721L143.751 35.5135H147.832L152.655 19.0236H148.92L145.853 31.7572L142.539 19.0236H138.68L135.168 31.8281L132.126 19.0236H128.416L133.066 35.5371Z" fill="#08080A"/>
<path d="M154.026 28.9223C154.026 33.0093 156.796 35.7261 160.259 35.7261C162.436 35.7261 163.994 34.7339 164.81 33.5999V35.5135H168.298V22.4255H164.81V24.2919C163.994 23.2052 162.485 22.2129 160.284 22.2129C156.796 22.2129 154.026 24.8352 154.026 28.9223ZM164.81 28.9695C164.81 31.4501 163.079 32.8203 161.174 32.8203C159.319 32.8203 157.563 31.4029 157.563 28.9223C157.563 26.4417 159.319 25.1187 161.174 25.1187C163.079 25.1187 164.81 26.489 164.81 28.9695Z" fill="#08080A"/>
<path d="M170.22 22.4255L175.266 35.5135H179.471L184.541 22.4255H180.856L177.393 32.466L173.93 22.4255H170.22Z" fill="#08080A"/>
<path d="M192.373 24.9297C194.154 24.9297 195.589 26.0165 195.638 27.7411H189.133C189.405 25.9456 190.716 24.9297 192.373 24.9297ZM198.878 31.4029H195.143C194.698 32.277 193.882 32.9857 192.398 32.9857C190.666 32.9857 189.281 31.899 189.108 29.9618H199.126C199.2 29.5365 199.225 29.1113 199.225 28.686C199.225 24.788 196.43 22.2129 192.472 22.2129C188.416 22.2129 185.596 24.8352 185.596 28.9695C185.596 33.0802 188.49 35.7261 192.472 35.7261C195.861 35.7261 198.136 33.8125 198.878 31.4029Z" fill="#08080A"/>
<path d="M81.0499 53.1489C81.0499 49.8489 76.2407 51.2814 76.2407 48.9791C76.2407 48.0198 76.9953 47.521 77.9546 47.5466C79.0418 47.5594 79.6046 48.2373 79.6813 48.8384H80.9604C80.8197 47.4826 79.7069 46.5489 78.0058 46.5489C76.2407 46.5489 75.0512 47.5466 75.0512 49.0175C75.0512 52.3303 79.8732 50.7954 79.8732 53.2C79.8732 54.0442 79.2081 54.6837 78.0825 54.6837C76.8418 54.6837 76.3174 53.9419 76.2407 53.2H75C75.0256 54.6709 76.2918 55.6686 78.0825 55.6686C80.0139 55.6686 81.0499 54.4151 81.0499 53.1489Z" fill="#08080A"/>
<path d="M97.3568 55.5791H98.5208V46.664H97.3568V50.578H92.8162V46.664H91.6522V55.5791H92.8162V51.5372H97.3568V55.5791Z" fill="#08080A"/>
<path d="M117.904 51.1152C117.904 48.4419 115.947 46.5617 113.427 46.5617C110.92 46.5617 108.95 48.4419 108.95 51.1152C108.95 53.7884 110.92 55.6686 113.427 55.6686C115.947 55.6686 117.904 53.7884 117.904 51.1152ZM110.14 51.1152C110.14 48.928 111.547 47.5722 113.427 47.5722C115.307 47.5722 116.714 48.928 116.714 51.1152C116.714 53.2896 115.307 54.6581 113.427 54.6581C111.547 54.6581 110.14 53.2896 110.14 51.1152Z" fill="#08080A"/>
<path d="M129.494 50.8977V47.6233H131.208C132.538 47.6233 133.101 48.2373 133.101 49.2733C133.101 50.271 132.538 50.8977 131.208 50.8977H129.494ZM134.29 49.2733C134.29 47.8152 133.305 46.664 131.208 46.664H128.33V55.5791H129.494V51.857H131.208C133.42 51.857 134.29 50.6291 134.29 49.2733Z" fill="#08080A"/>
<path d="M145.79 50.8977V47.6233H147.504C148.834 47.6233 149.397 48.2373 149.397 49.2733C149.397 50.271 148.834 50.8977 147.504 50.8977H145.79ZM150.587 49.2733C150.587 47.8152 149.602 46.664 147.504 46.664H144.626V55.5791H145.79V51.857H147.504C149.717 51.857 150.587 50.6291 150.587 49.2733Z" fill="#08080A"/>
<path d="M160.923 55.5791H162.087V46.664H160.923V55.5791Z" fill="#08080A"/>
<path d="M178.805 46.6512V53.7372L174.124 46.6512H172.96V55.5791H174.124V48.4803L178.805 55.5791H179.969V46.6512H178.805Z" fill="#08080A"/>
<path d="M194.884 46.5617C192.377 46.5617 190.408 48.4419 190.408 51.1152C190.408 53.7884 192.377 55.6558 194.884 55.6558C197.302 55.6558 199.054 53.8779 199.259 51.6651V50.7698H194.462V51.7163H198.018C197.839 53.4814 196.637 54.607 194.884 54.607C193.004 54.607 191.597 53.2512 191.597 51.1152C191.597 48.9663 193.004 47.6105 194.884 47.6105C196.138 47.6105 197.11 48.2117 197.596 49.2477H198.99C198.325 47.5338 196.765 46.5617 194.884 46.5617Z" fill="#08080A"/>
<defs>
<linearGradient id="paint0_linear_55_104" x1="27.9985" y1="65.0357" x2="27.9841" y2="-0.000141639" gradientUnits="userSpaceOnUse">
<stop stop-color="#FFC079"/>
<stop offset="0.5" stop-color="#B92A85"/>
<stop offset="1" stop-color="#00D2E6"/>
</linearGradient>
</defs>
</svg>
