<svg width="26" height="28" viewBox="0 0 26 28" fill="none" xmlns="http://www.w3.org/2000/svg">
<path d="M24.3409 4.63636H22.0227H18.5454V1.15908C18.5455 0.519256 18.0274 0 17.3864 0H8.11364C7.47268 0 6.95457 0.519256 6.95457 1.15908V4.63636H3.47728H1.15908C0.518115 4.63636 0 5.15561 0 5.79543C0 6.43525 0.518061 6.95456 1.15908 6.95456H2.31815V24.341C2.31815 26.2581 3.87831 27.8182 5.79543 27.8182H19.7046C21.6217 27.8182 23.1819 26.2581 23.1819 24.341V6.95456H24.3409C24.9819 6.95456 25.5 6.43531 25.5 5.79549C25.5 5.15567 24.9819 4.63636 24.3409 4.63636ZM9.27272 2.31821H16.2273V4.63641H9.27272V2.31821ZM20.8636 24.341C20.8636 24.9796 20.3444 25.5 19.7046 25.5H5.79543C5.15561 25.5 4.63636 24.9796 4.63636 24.341V6.95456H8.11364H17.3864H20.8637V24.341H20.8636Z" fill="#F23154"/>
<path d="M9.27284 9.27277C8.63188 9.27277 8.11377 9.79202 8.11377 10.4318V20.8637C8.11377 21.5035 8.63188 22.0228 9.27284 22.0228C9.91381 22.0228 10.4319 21.5035 10.4319 20.8637V10.4318C10.4319 9.79202 9.91381 9.27277 9.27284 9.27277Z" fill="#F23154"/>
<path d="M16.2269 9.27277C15.586 9.27277 15.0679 9.79202 15.0679 10.4318V20.8637C15.0679 21.5035 15.586 22.0228 16.2269 22.0228C16.8679 22.0228 17.386 21.5035 17.386 20.8637V10.4318C17.386 9.79202 16.8679 9.27277 16.2269 9.27277Z" fill="#F23154"/>
</svg>
